<?xml version="1.0" encoding="UTF-8"?>
<svg width="34px" height="22px" viewBox="0 0 34 22" version="1.1" xmlns="http://www.w3.org/2000/svg" xmlns:xlink="http://www.w3.org/1999/xlink">
    <!-- Generator: Sketch 60.1 (88133) - https://sketch.com -->
    <title>behance-brands</title>
    <desc>Created with Sketch.</desc>
    <g id="Desktop" stroke="none" stroke-width="1" fill="none" fill-rule="evenodd">
        <g id="Home-Copy-2" transform="translate(-193.000000, -490.000000)" fill-rule="nonzero" stroke="#EE0202">
            <g id="behance-brands" transform="translate(194.000000, 491.000000)">
                <path d="M12.8888889,8.96150651 C14.6555556,8.11963445 15.5777778,6.8457491 15.5777778,4.86291886 C15.5777778,0.952644697 12.6555556,0 9.28333333,0 L0,0 L0,19.6289117 L9.54444444,19.6289117 C13.1222222,19.6289117 16.4833333,17.9174744 16.4833333,13.9296594 C16.4833333,11.4649682 15.3111111,9.64275824 12.8888889,8.96150651 L12.8888889,8.96150651 Z M4.32777778,3.35087233 L8.38888889,3.35087233 C9.95,3.35087233 11.3555556,3.78842426 11.3555556,5.59401828 C11.3555556,7.2611465 10.2611111,7.93132096 8.71666667,7.93132096 L4.32777778,7.93132096 L4.32777778,3.35087233 L4.32777778,3.35087233 Z M8.95555556,16.2946552 L4.32777778,16.2946552 L4.32777778,10.8889504 L9.04444444,10.8889504 C10.95,10.8889504 12.1555556,11.6809748 12.1555556,13.6914982 C12.1555556,15.6743284 10.7166667,16.2946552 8.95555556,16.2946552 L8.95555556,16.2946552 Z M28.8722222,2.9631681 L20.8888889,2.9631681 L20.8888889,1.03018554 L28.8722222,1.03018554 L28.8722222,2.9631681 L28.8722222,2.9631681 Z M32,12.7277762 C32,8.52395458 29.5333333,5.01800055 25.0611111,5.01800055 C20.7166667,5.01800055 17.7666667,8.27471615 17.7666667,12.5394628 C17.7666667,16.9648297 20.5611111,20 25.0611111,20 C28.4666667,20 30.6722222,18.4713376 31.7333333,15.2201606 L28.2777778,15.2201606 C27.9055556,16.433121 26.3722222,17.0756023 25.1833333,17.0756023 C22.8888889,17.0756023 21.6833333,15.7352534 21.6833333,13.4588757 L31.9666667,13.4588757 C31.9833333,13.2262531 32,12.9770147 32,12.7277762 Z M21.6888889,10.9997231 C21.8166667,9.1332041 23.0611111,7.96455276 24.9388889,7.96455276 C26.9055556,7.96455276 27.8944444,9.1165882 28.0611111,10.9997231 L21.6888889,10.9997231 Z" id="Shape"></path>
            </g>
        </g>
    </g>
</svg>