<?xml version="1.0" encoding="UTF-8"?>
<svg width="28px" height="28px" viewBox="0 0 28 28" version="1.1" xmlns="http://www.w3.org/2000/svg" xmlns:xlink="http://www.w3.org/1999/xlink">
    <!-- Generator: Sketch 60.1 (88133) - https://sketch.com -->
    <title>github-brands</title>
    <desc>Created with Sketch.</desc>
    <g id="Desktop" stroke="none" stroke-width="1" fill="none" fill-rule="evenodd">
        <g id="Home-Copy-2" transform="translate(-147.000000, -487.000000)" fill-rule="nonzero" stroke="#EE0202">
            <g id="github-brands" transform="translate(148.000000, 488.000000)">
                <path d="M8.69637097,20.935162 C8.69637097,21.0426872 8.57580645,21.1287074 8.42379032,21.1287074 C8.25080645,21.1448362 8.13024194,21.058816 8.13024194,20.935162 C8.13024194,20.8276367 8.25080645,20.7416166 8.40282258,20.7416166 C8.56008065,20.7254878 8.69637097,20.811508 8.69637097,20.935162 Z M7.06612903,20.6932302 C7.02943548,20.8007554 7.13427419,20.9244095 7.29153226,20.956667 C7.42782258,21.0104296 7.58508065,20.956667 7.61653226,20.8491418 C7.64798387,20.7416166 7.5483871,20.6179626 7.39112903,20.5695762 C7.25483871,20.5319424 7.10282258,20.585705 7.06612903,20.6932302 Z M9.38306452,20.6018338 C9.23104839,20.6394676 9.12620968,20.7416166 9.14193548,20.8652706 C9.15766129,20.9727958 9.29395161,21.0426872 9.45120968,21.0050534 C9.60322581,20.9674195 9.70806452,20.8652706 9.69233871,20.7577454 C9.6766129,20.6555964 9.53508065,20.585705 9.38306452,20.6018338 Z M12.8322581,0 C5.56169355,0 0,5.66120328 0,13.1180779 C0,19.0803518 3.65887097,24.1824239 8.88508065,25.9780952 C9.55604839,26.1017492 9.79193548,25.6770246 9.79193548,25.3275676 C9.79193548,24.9942394 9.77620968,23.1555579 9.77620968,22.026543 C9.77620968,22.026543 6.10685484,22.8329823 5.33629032,20.4244171 C5.33629032,20.4244171 4.73870968,18.8599251 3.87903226,18.4567055 C3.87903226,18.4567055 2.67862903,17.6126324 3.96290323,17.6287612 C3.96290323,17.6287612 5.26814516,17.7362864 5.98629032,19.0158367 C7.13427419,21.0910736 9.05806452,20.4943085 9.80766129,20.1394753 C9.92822581,19.2792735 10.2689516,18.6825084 10.646371,18.3276752 C7.71612903,17.994347 4.75967742,17.5588698 4.75967742,12.3869063 C4.75967742,10.9084344 5.15806452,10.1665103 5.99677419,9.22028834 C5.86048387,8.87083135 5.41491935,7.42999329 6.13306452,5.56980683 C7.22862903,5.22034984 9.75,7.02139742 9.75,7.02139742 C10.7983871,6.72032678 11.9254032,6.5644152 13.0419355,6.5644152 C14.1584677,6.5644152 15.2854839,6.72032678 16.333871,7.02139742 C16.333871,7.02139742 18.8552419,5.21497358 19.9508065,5.56980683 C20.6689516,7.43536955 20.2233871,8.87083135 20.0870968,9.22028834 C20.9258065,10.1718866 21.4395161,10.9138107 21.4395161,12.3869063 C21.4395161,17.5749986 18.3520161,17.9889707 15.4217742,18.3276752 C15.9040323,18.7523998 16.3129032,19.5588391 16.3129032,20.8222605 C16.3129032,22.6340606 16.2971774,24.8759616 16.2971774,25.316815 C16.2971774,25.666272 16.5383065,26.0909967 17.2040323,25.9673427 C22.4459677,24.1824239 26,19.0803518 26,13.1180779 C26,5.66120328 20.1028226,0 12.8322581,0 Z M5.09516129,18.5427256 C5.02701613,18.5964883 5.04274194,18.7201423 5.13185484,18.8222912 C5.21572581,18.9083114 5.33629032,18.9459453 5.40443548,18.8760539 C5.47258065,18.8222912 5.45685484,18.6986372 5.36774194,18.5964883 C5.28387097,18.5104681 5.16330645,18.4728342 5.09516129,18.5427256 Z M4.52903226,18.1072485 C4.49233871,18.1771399 4.54475806,18.2631601 4.64959677,18.3169227 C4.73346774,18.3706853 4.83830645,18.3545565 4.875,18.2792888 C4.91169355,18.2093974 4.85927419,18.1233773 4.75443548,18.0696146 C4.64959677,18.0373571 4.56572581,18.0534859 4.52903226,18.1072485 Z M6.22741935,20.0211975 C6.14354839,20.0910889 6.175,20.2523768 6.29556452,20.3545257 C6.41612903,20.4781798 6.56814516,20.4943085 6.63629032,20.4082884 C6.70443548,20.338397 6.67298387,20.1771091 6.56814516,20.0749602 C6.45282258,19.9513061 6.29556452,19.9351774 6.22741935,20.0211975 Z M5.62983871,19.2308871 C5.54596774,19.2846497 5.54596774,19.4244325 5.62983871,19.5480865 C5.71370968,19.6717405 5.85524194,19.7255032 5.9233871,19.6717405 C6.00725806,19.6018491 6.00725806,19.4620663 5.9233871,19.3384123 C5.85,19.2147583 5.71370968,19.1609957 5.62983871,19.2308871 Z" id="Shape"></path>
            </g>
        </g>
    </g>
</svg>