<?xml version="1.0" encoding="UTF-8"?>
<svg width="33px" height="28px" viewBox="0 0 33 28" version="1.1" xmlns="http://www.w3.org/2000/svg" xmlns:xlink="http://www.w3.org/1999/xlink">
    <!-- Generator: Sketch 60.1 (88133) - https://sketch.com -->
    <title>twitter-brands</title>
    <desc>Created with Sketch.</desc>
    <g id="Desktop" stroke="none" stroke-width="1" fill="none" fill-rule="evenodd">
        <g id="Home-Copy-2" transform="translate(-50.000000, -487.000000)" fill-rule="nonzero" stroke="#EE0202">
            <g id="twitter-brands" transform="translate(50.000000, 488.000000)">
                <path d="M28.7107372,6.47966391 C28.7310497,6.76402533 28.7310497,7.04844927 28.7310497,7.33281069 C28.7310497,16.0062092 22.1320865,26 10.0711018,26 C6.35533733,26 2.90357384,24.9233907 0,23.054721 C0.527939562,23.1156198 1.03550404,23.1359403 1.58375619,23.1359403 C4.64970566,23.1359403 7.47209169,22.1000344 9.72591299,20.332842 C6.84265173,20.2718806 4.42639229,18.3828279 3.59388904,15.7828091 C4.00001563,15.843708 4.40607971,15.8843489 4.83251888,15.8843489 C5.42133368,15.8843489 6.01021098,15.8030671 6.55840062,15.6609489 C3.55332638,15.0515226 1.29944258,12.4109254 1.29944258,9.22186337 L1.29944258,9.14064405 C2.17250849,9.62814757 3.18782495,9.93282945 4.26389166,9.97340785 C2.49738476,8.79525872 1.34006773,6.78434579 1.34006773,4.50932938 C1.34006773,3.29060185 1.6648815,2.1734141 2.23344622,1.19840707 C5.46189634,5.17965453 10.3147278,7.77961076 15.7563115,8.06403471 C15.6548112,7.57653119 15.5938734,7.06876973 15.5938734,6.56094576 C15.5938734,2.94527904 18.5177598,0 22.152274,0 C24.0405939,0 25.7461631,0.7921854 26.9441678,2.07187432 C28.426361,1.7875129 29.8476791,1.23904799 31.1066215,0.487503517 C30.6192446,2.01097545 29.5837406,3.29066437 28.2233602,4.10310771 C29.5431779,3.96098952 30.8223704,3.59528373 32,3.08752227 C31.1067465,4.38746913 29.9899296,5.54523527 28.7107372,6.47966391 Z" id="Path"></path>
            </g>
        </g>
    </g>
</svg>