<?xml version="1.0" encoding="UTF-8"?>
<svg width="86px" height="22px" viewBox="0 0 86 22" version="1.1" xmlns="http://www.w3.org/2000/svg" xmlns:xlink="http://www.w3.org/1999/xlink">
    <!-- Generator: Sketch 61 (89581) - https://sketch.com -->
    <title>com.</title>
    <desc>Created with Sketch.</desc>
    <g id="Symbols" stroke="none" stroke-width="1" fill="none" fill-rule="evenodd">
        <g id="Header" transform="translate(0.000000, -17.000000)" fill="#EE0202" fill-rule="nonzero">
            <path d="M6.728,38.494 C11.972,38.494 15.164,34.58 16.988,29.868 L16.266,29.564 C14.442,33.668 11.706,34.466 10.3,34.466 C8.362,34.466 7.374,32.832 7.374,30.362 C7.374,26.144 9.426,18.544 12.732,18.544 C14.936,18.544 13.682,21.888 12.96,24.016 L18.394,24.016 C18.698,20.254 17.596,17.214 13.15,17.214 C6.804,17.214 0.876,23.788 0.876,31.692 C0.876,35.568 2.662,38.494 6.728,38.494 Z M27.552,38.494 C35,38.494 40.32,32.11 40.32,25.65 C40.32,20.482 36.9,17.214 32.454,17.214 C25.044,17.214 19.724,23.712 19.724,30.21 C19.724,35.34 23.068,38.494 27.552,38.494 Z M28.16,37.164 C26.83,37.164 26.032,35.834 26.032,32.984 C26.032,25.992 28.236,18.544 31.884,18.544 C33.29,18.544 34.012,19.988 34.012,22.838 C34.012,29.83 31.846,37.164 28.16,37.164 Z M68.212,38.494 C70.53,38.494 73.076,36.746 75.242,32.49 L74.672,32.148 C73.456,34.086 71.822,35.948 70.454,35.948 C69.428,35.948 69.314,34.884 69.656,33.63 L71.746,26.068 C73.57,19.418 71.594,17.214 68.63,17.214 C64.982,17.214 63.31,20.938 61.676,25.08 C61.79,24.738 61.828,24.434 61.866,24.13 C62.892,18.772 61.106,17.214 58.332,17.214 C54.684,17.214 52.898,20.938 51.264,25.118 L53.316,17.214 L43.74,19.912 L43.588,20.52 C46.134,20.634 46.096,20.976 45.298,24.32 L41.916,38 L47.882,38 L48.756,34.466 C50.466,27.474 53.734,20.444 55.216,20.444 C56.242,20.444 56.166,22.268 55.444,25.156 L52.252,38 L58.218,38 L59.092,34.466 C60.802,27.474 64.032,20.444 65.514,20.444 C66.464,20.444 66.844,21.66 65.856,25.156 L64.222,30.894 C62.512,37.088 64.64,38.494 68.174,38.494 L68.212,38.494 Z M81.436,38.494 C83.564,38.494 85.046,36.936 85.046,34.96 C85.046,32.984 83.564,31.388 81.436,31.388 C79.46,31.388 77.94,32.984 77.94,34.96 C77.94,36.936 79.46,38.494 81.436,38.494 Z" id="com."></path>
        </g>
    </g>
</svg>
